# xmcd
# 
# Track frame offsets:
#     150
#     15227
#     33187
#     49260
#     67120
#     88317
#     104402
#     127641
#     142371
#     151372
#     163579
#     174490
#     191544
#     211945
#     231247
#     244678
#     260275
#     278180
#     293654
#     307962
#     324925
# 
# Disc length: 4662
# 
# Revision: 10
# Processed by: cddbd v1.5.2PL0 Copyright (c) Steve Scherf et al.
# Submitted via: fre:ac v1.0.31
# 
DISCID=23123415
DTITLE=R&B - What It Is! Disc 3
DYEAR=2006
DGENRE=R&B
TTITLE0=Baby Huey and The Baby Sitters - Hard Times
TTITLE1=Houseguests - What So Never The Dance (Part 1 and 2)
TTITLE2=Eugene McDaniels - Headless Heroes
TTITLE3=Wade Marcus - Spinning Wheel
TTITLE4=Earth, Wind and Fire - Bad Tune
TTITLE5=Rasputin's Stash - Mr. Cool
TTITLE6=Junior Mance - Don't Cha Hear Me Callin' To Ya
TTITLE7=Stovall Sisters - Hang On In There
TTITLE8=The Beginning Of The End - Funky Nassau (Part 2)
TTITLE9=Mark Holder and The Positives - Whatever's Fair
TTITLE10=Ed Robinson - Face It
TTITLE11=Young-Holt Unlimited - Wah Wah Man
TTITLE12=Aretha Franklin - Rock Steady [Alternate Mix]
TTITLE13=Black Haze Express - Won't Nobody Listen
TTITLE14=Allen Toussaint - Goin' Down
TTITLE15=Malo - Suavecito
TTITLE16=Charles Wright - You Gotta Know Whatcha Doin'
TTITLE17=Tami Lynn - Mo Jo Hanna
TTITLE18=King Curtis - Ridin' Thumb
TTITLE19=Macondo - Almendra
TTITLE20=Little Richard - Nuki Suki
EXTD=
EXTT0=
EXTT1=
EXTT2=
EXTT3=
EXTT4=
EXTT5=
EXTT6=
EXTT7=
EXTT8=
EXTT9=
EXTT10=
EXTT11=
EXTT12=
EXTT13=
EXTT14=
EXTT15=
EXTT16=
EXTT17=
EXTT18=
EXTT19=
EXTT20=
PLAYORDER=
